<svg width="0" height="0" class="hidden">
  <symbol xmlns="http://www.w3.org/2000/svg" viewBox="0 0 22 9" id="arrow">
    <path d="M.3 5.472h16.948l-.1 2.857a.292.292 0 000 .41l.172.172a.28.28 0 00.2.086.285.285 0 00.2-.084l4.193-4.211A.292.292 0 0022 4.5a.283.283 0 00-.084-.2L17.723.087a.289.289 0 00-.407 0l-.172.173a.287.287 0 00-.084.2.278.278 0 00.084.2l.113 2.865H.292A.3.3 0 000 3.82v1.37a.292.292 0 00.3.282z"></path>
  </symbol>
  <symbol xmlns="http://www.w3.org/2000/svg" viewBox="0 0 18.94 16.969" id="cart">
    <path d="M5.53 16.978a2.074 2.074 0 110-4.147 2.056 2.056 0 011.46.6 2.03 2.03 0 01.61 1.466 2.071 2.071 0 01-2.07 2.081zm0-2.963a.889.889 0 10.34 1.71.9.9 0 00.55-.824.92.92 0 00-.26-.629.9.9 0 00-.63-.257zm8.39 2.963a2.045 2.045 0 01-1.46-.607 2.068 2.068 0 011.46-3.54 1.953 1.953 0 011.47.6 2.085 2.085 0 01-.67 3.383 2.093 2.093 0 01-.8.164zm0-2.963a.978.978 0 00-.82.548.887.887 0 001.16 1.161.891.891 0 00.29-1.452.9.9 0 00-.63-.257zm-11.27.164a.562.562 0 01-.25-.056.59.59 0 01-.29-.787 3.686 3.686 0 013.05-2.151L4.11 5.794a.591.591 0 111.16-.228l1.09 5.578h9.43l1.8-6.771H4.29A4.346 4.346 0 01.01.68.587.587 0 01.5.007a.6.6 0 01.68.5 3.159 3.159 0 003.11 2.682h14.07a.582.582 0 01.47.232.594.594 0 01.11.513l-2.13 7.956a.59.59 0 01-.57.44H5.88a.03.03 0 00-.02 0 2.66 2.66 0 00-2.68 1.51.586.586 0 01-.53.338z"></path>
  </symbol>
  <symbol xmlns="http://www.w3.org/2000/svg" viewBox="0 0 22 20" id="cart-week">
    <path d="M.814 1.63h2.333L6.47 13.67a.812.812 0 00.787.59h10.214a.821.821 0 00.746-.48l3.717-8.56a.836.836 0 00-.068-.78.813.813 0 00-.678-.37H9.9a.82.82 0 000 1.64h10.04l-3.011 6.92H7.867L4.544.6a.808.808 0 00-.787-.6H.814a.815.815 0 000 1.63zM6.484 20a1.85 1.85 0 10-1.845-1.85A1.85 1.85 0 006.484 20zm11.53 0h.135a1.907 1.907 0 10-.135 0z"></path>
  </symbol>
  <symbol xmlns="http://www.w3.org/2000/svg" viewBox="0 0 53.56 52.25" id="credit-card">
    <path d="M46.18 30.91a.83.83 0 00-.84.83v8.27a2.164 2.164 0 01-2.16 2.16H3.84a2.164 2.164 0 01-2.16-2.16V28.09h27.29a.84.84 0 100-1.68H1.68v-5.47h9.87a.828.828 0 00.83-.83.837.837 0 00-.83-.84H1.68v-2.88a2.166 2.166 0 012.16-2.17h25.13a.835.835 0 100-1.67H3.84a3.839 3.839 0 00-3.83 3.84v23.62a3.837 3.837 0 003.83 3.83h39.34a3.837 3.837 0 003.83-3.83v-8.27a.828.828 0 00-.83-.83zM28.97 19.27H14.75a.837.837 0 00-.83.84.828.828 0 00.83.83h14.22a.837.837 0 00.84-.83.845.845 0 00-.84-.84zm-9.24 11.56H5.46a.835.835 0 000 1.67h14.27a.835.835 0 100-1.67zm-6.08 3.99H5.46a.835.835 0 000 1.67h8.19a.835.835 0 000-1.67zm34.63-13.61a.832.832 0 00.84-.84V15.6a3.038 3.038 0 00-2.39-2.97V6.61a6.6 6.6 0 10-13.19 0v6.02a3.053 3.053 0 00-2.4 2.97v10.75a3.045 3.045 0 003.04 3.04h11.9a3.039 3.039 0 003.04-3.04v-3.19a.835.835 0 00-1.67 0v3.19a1.379 1.379 0 01-1.37 1.37h-11.9a1.379 1.379 0 01-1.37-1.37V15.6a1.379 1.379 0 011.37-1.37h11.9a1.379 1.379 0 011.37 1.37v4.77a.83.83 0 00.83.84zm-3.23-8.65h-9.84V6.61a4.92 4.92 0 119.84 0v5.95zm-4.92 4.32a3.092 3.092 0 00-.83 6.07v2.04a.83.83 0 00.83.84.839.839 0 00.84-.84v-2.04a3.094 3.094 0 00-.84-6.07zm0 4.52a1.425 1.425 0 111.42-1.43 1.428 1.428 0 01-1.42 1.43z" fill-rule="evenodd" fill="#a3bbc8"></path>
    <circle cx="43.75" cy="42.45" r="9.81" opacity=".34" fill="#a3bbc8"></circle>
  </symbol>
  <symbol xmlns="http://www.w3.org/2000/svg" viewBox="0 0 53.75 36.44" id="delivery">
    <path d="M9.004 4.77H2.878a.79.79 0 000 1.58h6.126a.79.79 0 000-1.58zm.524 11.01h-5.6a.785.785 0 100 1.57h5.6a.785.785 0 100-1.57zm-2.094-4.72H.788a.79.79 0 000 1.58h6.65a.79.79 0 00-.004-1.58zm0 11.01h-.646a.785.785 0 100 1.57h.644a.785.785 0 10.002-1.57zm-3.263 0H.788a.785.785 0 100 1.57h3.387a.785.785 0 10-.004-1.57zm36.86-19.86h-6.657V.79a.784.784 0 00-.786-.78H21.413a.785.785 0 100 1.57h11.39V18.8a.786.786 0 101.571 0V3.78h6.657a6.519 6.519 0 016.509 6.52v13.29h-2a4.974 4.974 0 00-9.824 0h-1.345v-1.12a.786.786 0 10-1.571 0v1.12h-8.336a4.974 4.974 0 00-9.823 0h-1.634V1.58h5.261a.785.785 0 100-1.57h-6.046a.783.783 0 00-.785.78v23.59a.791.791 0 00.785.79h2.419a4.974 4.974 0 009.823 0h11.252a4.974 4.974 0 009.824 0h2.782a.791.791 0 00.785-.79V10.3a8.094 8.094 0 00-8.076-8.09zM19.556 27.79a3.41 3.41 0 113.4-3.41 3.411 3.411 0 01-3.4 3.41zm21.075 0a3.411 3.411 0 01-3.4-3.41 3.4 3.4 0 113.4 3.41zm.4-22.44h-4.3a.791.791 0 00-.785.79v7.39a.791.791 0 00.785.79h8.457a.792.792 0 00.786-.79V10.3a4.949 4.949 0 00-4.943-4.95zm3.367 7.39h-6.882V6.93h3.515a3.371 3.371 0 013.367 3.37v2.44zm-24.842 9.61a2.03 2.03 0 102.024 2.03 2.029 2.029 0 00-2.024-2.03zm0 2.49a.46.46 0 01-.455-.46.455.455 0 01.909 0 .46.46 0 01-.454.46zm21.075-2.49a2.03 2.03 0 102.025 2.03 2.03 2.03 0 00-2.025-2.03zm0 2.49a.46.46 0 01-.454-.46.454.454 0 01.908 0 .46.46 0 01-.454.46zm4.552-8.37a.783.783 0 00-.785.78v1.99a.786.786 0 101.571 0v-1.99a.784.784 0 00-.781-.78z" fill-rule="evenodd" fill="#a3bbc8"></path>
    <circle cx="43.938" cy="26.645" r="9.812" opacity=".34" fill="#a3bbc8"></circle>
  </symbol>
  <symbol xmlns="http://www.w3.org/2000/svg" viewBox="0 0 22 18" id="heart-week">
    <path d="M21.99 5.82a6.208 6.208 0 00-1.849-4.1A5.871 5.871 0 0016 0c-2.311 0-3.948 1.78-4.827 2.74a2.156 2.156 0 01-.156.17l-.083-.09C10.134 1.9 8.458 0 5.996 0a5.873 5.873 0 00-4.139 1.72 6.208 6.208 0 00-1.849 4.1 6.845 6.845 0 001.271 4.34 29.307 29.307 0 004.763 4.75C7.747 16.32 9.992 18 11.007 18c1.032 0 3.269-1.68 4.965-3.09a29.234 29.234 0 004.746-4.75 6.935 6.935 0 001.272-4.34zm-2.376 3.61a27 27 0 01-4.431 4.42c-2.406 2-3.831 2.79-4.172 2.82-.342-.03-1.77-.83-4.188-2.84a26.78 26.78 0 01-4.437-4.4 5.6 5.6 0 01-1.054-3.54 4.807 4.807 0 014.666-4.57c1.863 0 3.216 1.54 3.943 2.37A1.52 1.52 0 0011 4.45a1.731 1.731 0 001.151-.81c.794-.87 2.122-2.32 3.851-2.32a4.807 4.807 0 014.666 4.57 5.528 5.528 0 01-1.054 3.54z"></path>
  </symbol>
  <symbol xmlns="http://www.w3.org/2000/svg" viewBox="0 0 15.28 15.281" id="search">
    <path d="M2.98 6.076a.617.617 0 01.75.485 2.583 2.583 0 00.78 1.489A3.036 3.036 0 006 8.827a.636.636 0 01.49.743.649.649 0 01-.72.515 4.21 4.21 0 01-2.14-1.13A4.164 4.164 0 012.5 6.819a.6.6 0 01.48-.743zM6.26 0a6.267 6.267 0 016.28 6.257 6.136 6.136 0 01-.57 2.6l2.34 2.036c1.7 1.746.74 3.266.29 3.717-.42.454-1.99 1.414-3.73-.292l-2.06-2.35A6.261 6.261 0 116.26 0zm5.55 13.517a1.352 1.352 0 001.88.226 1.313 1.313 0 00-.23-1.874l-2.16-1.88a6.236 6.236 0 01-1.37 1.34zm-5.55-2.312a4.948 4.948 0 10-4.97-4.948A4.963 4.963 0 006.26 11.2z"></path>
  </symbol>
  <symbol xmlns="http://www.w3.org/2000/svg" viewBox="0 0 20 20" id="search-week">
    <path d="M19.45 16.8l-4.588-4.59a8.827 8.827 0 01-2.651 2.65l4.588 4.59a1.874 1.874 0 002.651-2.65zM15 7.5A7.5 7.5 0 107.5 15 7.5 7.5 0 0015 7.5zm-7.5 5.62a5.625 5.625 0 115.625-5.62A5.628 5.628 0 017.5 13.12zM3.125 7.5h1.25A3.135 3.135 0 017.5 4.37V3.12A4.386 4.386 0 003.125 7.5z"></path>
  </symbol>
  <symbol xmlns="http://www.w3.org/2000/svg" viewBox="0 0 50.875 53.13" id="support">
    <path d="M41.078 33.5a9.815 9.815 0 11-9.8 9.82 9.811 9.811 0 019.8-9.82z" opacity=".34" fill="#a3bbc8" fill-rule="evenodd"></path>
    <path d="M45.406 11.58a.937.937 0 00-1.592.99 22.684 22.684 0 01-32.86 30.14.938.938 0 00-1.125 1.5 24.559 24.559 0 0035.577-32.63zm-23.03 21.94h-7.55l4.743-4.75a12.68 12.68 0 003.744-9.03 5.844 5.844 0 10-11.688 0 .938.938 0 001.875 0 3.969 3.969 0 117.938 0 10.836 10.836 0 01-3.195 7.71l-6.344 6.34a.949.949 0 00-.2 1.03.93.93 0 00.866.57h9.813a.935.935 0 10-.002-1.87zm15.039-6.44h-2.6v-1.52a.938.938 0 00-1.875 0v1.52h-5.286l5.286-8.85v4.21a.938.938 0 101.875 0v-7.62a.957.957 0 00-.456-.8.94.94 0 00-1.286.33l-7.875 13.19a.933.933 0 00-.011.94.951.951 0 00.816.48h6.938v5.5a.938.938 0 001.875 0v-5.5h2.6a.94.94 0 00-.001-1.88zm5.33-22.63a.938.938 0 10-1.875.04l.042 1.75A24.556 24.556 0 007.363 42.09a.93.93 0 00.656.27.92.92 0 00.669-.28.942.942 0 00-.013-1.33A22.679 22.679 0 0124.557 1.88a22.745 22.745 0 0115.107 5.77l-1.843.04a.935.935 0 00.022 1.87h.023l4.06-.09a.934.934 0 00.915-.96z" fill="#a3bbc8" fill-rule="evenodd"></path>
  </symbol>
  <symbol xmlns="http://www.w3.org/2000/svg" viewBox="0 0 20.03 20.031" id="user">
    <path d="M2.15 4.287a2.146 2.146 0 112.14-2.145 2.145 2.145 0 01-2.14 2.145zm0 7.869a2.146 2.146 0 112.14-2.147 2.146 2.146 0 01-2.14 2.147zm0 7.868a2.146 2.146 0 112.14-2.146 2.145 2.145 0 01-2.14 2.146zm7.86-15.737a2.146 2.146 0 112.15-2.145 2.143 2.143 0 01-2.15 2.145zm0 7.869a2.146 2.146 0 112.15-2.147 2.144 2.144 0 01-2.15 2.147zm0 7.868a2.146 2.146 0 112.15-2.146 2.143 2.143 0 01-2.15 2.146zm7.87-15.737a2.146 2.146 0 112.15-2.145 2.143 2.143 0 01-2.15 2.145zm0 7.869a2.146 2.146 0 112.15-2.147 2.144 2.144 0 01-2.15 2.147zm0 7.868a2.146 2.146 0 112.15-2.146 2.143 2.143 0 01-2.15 2.146z"></path>
  </symbol>
  <symbol xmlns="http://www.w3.org/2000/svg" viewBox="0 0 22 25" id="triangle">
    <path d="M20.684 14.74L4.64 24.54a3.228 3.228 0 01-3.062.14 2.685 2.685 0 01-1.579-2.39V2.7A2.685 2.685 0 011.578.31 3.258 3.258 0 014.64.46l16.044 9.79A2.666 2.666 0 0122 12.5a2.638 2.638 0 01-1.316 2.24z"></path>
  </symbol>
  <symbol xmlns="http://www.w3.org/2000/svg" viewBox="0 0 15 15" id="author-sign">
    <path d="M13.234 13.652a1.906 1.906 0 01-.156.032c-3.594.644-4.254.754-4.328.761-.176.02-.309.012-.406-.03a.229.229 0 01-.098-.075.601.601 0 01.055-.117c.02-.036.039-.078.058-.118.121-.285.036-.57-.226-.75-.195-.132-.457-.187-.774-.16-.187.016-3.504.575-5.324.88l-.894.702c2.086-.351 6.054-1.02 6.265-1.039.188-.015.332.008.422.07.05.036.047.047.031.079a.484.484 0 01-.039.078c-.058.113-.14.265-.113.457.027.207.18.387.418.488.133.063.29.09.465.09.07 0 .144-.004.223-.012.14-.02 1.609-.277 4.359-.77.09-.015.148-.027.16-.027a.271.271 0 00.219-.316.277.277 0 00-.317-.223zm-9.636-2.644l-2.313 2.418c-.258.27-.437.597-.523.957L4.047 11.8c1.027.453 1.851.597 2.48.597 1.106 0 1.618-.445 1.618-.445-1.028-.535-1.176-1.535-1.176-1.535.789.332 2.43.723 2.43.723 2.183-1.454 3.324-4.606 3.324-4.606a2.41 2.41 0 01-.649.086c-1.023 0-1.726-.652-1.726-.652l2.851-.621C14.145 3.402 14.24 0 14.24 0L5.573 7.707a6.38 6.38 0 00-1.976 3.3zm0 0"></path>
  </symbol>
  <symbol xmlns="http://www.w3.org/2000/svg" viewBox="0 0 15 15" id="calendar">
    <path d="M11.457 7.367H12.5c.238 0 .43-.191.43-.43V5.891a.43.43 0 00-.43-.43h-1.043a.43.43 0 00-.43.43v1.046c0 .239.192.43.43.43zm.008-1.465h1.027v1.024h-1.027zm-.008 4.246H12.5c.238 0 .43-.191.43-.425V8.676a.428.428 0 00-.43-.43h-1.043a.428.428 0 00-.43.43v1.047c0 .234.192.425.43.425zm.008-1.464h1.027V9.71h-1.027zM8.469 7.367h1.047c.238 0 .43-.191.43-.43V5.891a.43.43 0 00-.43-.43H8.469a.434.434 0 00-.43.43v1.046c0 .239.195.43.43.43zm.011-1.465h1.024v1.024H8.48zm-4.937 4.996H2.5a.428.428 0 00-.43.43v1.047c0 .234.192.426.43.426h1.043c.238 0 .43-.192.43-.426v-1.047a.428.428 0 00-.43-.43zm-.008 1.465H2.508v-1.027h1.027zm.008-6.902H2.5a.43.43 0 00-.43.43v1.046c0 .239.192.43.43.43h1.043c.238 0 .43-.191.43-.43V5.891a.43.43 0 00-.43-.43zm-.008 1.465H2.508V5.902h1.027zm4.934 3.16h1.047a.43.43 0 00.43-.43V8.61a.428.428 0 00-.43-.43H8.469a.43.43 0 00-.43.43v1.047c0 .235.195.43.43.43zM8.48 8.62h1.024v1.024H8.48zm4.668-7.617h-.937V.668A.67.67 0 0011.543 0h-.102c-.37 0-.668.3-.668.668v.336H4.227V.668A.668.668 0 003.559 0h-.102a.67.67 0 00-.668.668v.336h-.937c-.606 0-1.102.492-1.102 1.101v11.797c0 .606.492 1.098 1.098 1.098h11.304c.606 0 1.098-.492 1.098-1.098V2.105c0-.609-.496-1.101-1.102-1.101zM11.211.668a.23.23 0 01.23-.227h.102c.125 0 .227.102.227.227v.336h-.56zm-7.98 0c0-.125.101-.227.226-.227h.102a.23.23 0 01.23.227v.336H3.23zm10.578 13.234c0 .364-.293.66-.657.66H1.848a.659.659 0 01-.657-.66v-.004c.184.141.41.223.66.223h8.907c.297 0 .57-.113.781-.32l2.27-2.274zm-2.496-.5a.828.828 0 00.027-.222v-1.465c0-.277.226-.504.5-.504h1.469a.869.869 0 00.222-.027zm2.496-9.257H4.445a.218.218 0 100 .437h9.364v5.688a.502.502 0 01-.5.503h-1.47a.941.941 0 00-.937.942v1.465a.505.505 0 01-.504.504H1.852a.663.663 0 01-.66-.664V4.582H3.57a.218.218 0 100-.437H1.191v-2.04a.66.66 0 01.66-.66h.938v.645c0 .367.3.668.668.668a.222.222 0 00.223-.219.225.225 0 00-.223-.223.227.227 0 01-.227-.226v-.645h7.543v.645c0 .367.297.668.668.668a.218.218 0 00.22-.219.222.222 0 00-.22-.223.23.23 0 01-.23-.226v-.645h1.937a.66.66 0 01.66.66zM3.543 8.18H2.5a.428.428 0 00-.43.43v1.046c0 .235.192.43.43.43h1.043a.43.43 0 00.43-.43V8.61a.428.428 0 00-.43-.43zm-.008 1.465H2.508V8.62h1.027zm1.95-2.278H6.53a.43.43 0 00.43-.43V5.891a.434.434 0 00-.43-.43H5.484a.43.43 0 00-.43.43v1.046c0 .239.192.43.43.43zm.011-1.465H6.52v1.024H5.496zm2.984 6.461a.222.222 0 00-.218-.21.225.225 0 00-.223.222c0 .234.195.43.43.43h1.047a.43.43 0 00.43-.43v-1.047a.428.428 0 00-.43-.43H8.469a.43.43 0 00-.43.43v.3c0 .122.102.22.223.22a.218.218 0 00.218-.22v-.288h1.024v1.023zm-2.996-2.277h1.047c.235 0 .43-.195.43-.43V8.61a.43.43 0 00-.43-.43H5.484a.428.428 0 00-.43.43v1.047c0 .235.192.43.43.43zm.012-1.465H6.52v1.024H5.496zm-.012 4.18h1.047a.43.43 0 00.43-.426v-1.047a.43.43 0 00-.43-.43H5.484a.428.428 0 00-.43.43v1.047c0 .234.192.426.43.426zm.012-1.465H6.52v1.027H5.496zm0 0"></path>
  </symbol>
  <symbol xmlns="http://www.w3.org/2000/svg" viewBox="0 0 22.66 14.38" id="google+">
    <path d="M6.72 14.35A7.121 7.121 0 01.13 8.7a6.6 6.6 0 01-.14-1.93A7.277 7.277 0 015.48.21 5.282 5.282 0 016.66.02c.23-.01.46-.02.69-.02a6.786 6.786 0 013.4.93 9.386 9.386 0 011.27.93c-.72.71-1.41 1.4-2.11 2.09a3.914 3.914 0 00-2.1-1.02 4.259 4.259 0 00-.61-.04 4.307 4.307 0 00-4.14 3.35 3.817 3.817 0 00-.1 1.3 4.3 4.3 0 002.94 3.74 4.35 4.35 0 001.25.19c.1 0 .2-.01.3-.01a4.2 4.2 0 002.09-.67 3.314 3.314 0 001.43-2.17H7.12c0-.09.02-1.89.02-2.76l.01-.12h6.76a7.773 7.773 0 01-1.28 6.05 6.273 6.273 0 01-3.55 2.32 7.539 7.539 0 01-1.94.25c-.14 0-.28 0-.42-.01zm13.33-4.05h-1.89v-.07l.02-2.43h-2.51v-.08l.02-1.82v-.07h2.5l.02-2.43v-.07h1.96v.07l-.02 2.43h2.51v.07l-.01 1.82v.08h-2.51l-.02 2.43v.07h-.07z"></path>
  </symbol>
  <symbol xmlns="http://www.w3.org/2000/svg" viewBox="0 0 17 17" id="instagram">
    <path d="M3.59 16.941a4.324 4.324 0 01-3.43-3.75C-.07 11.738-.09 5 .328 3.54A4.39 4.39 0 014.078.191 33.836 33.836 0 018.391 0c1.597 0 3.218.04 4.187.102a4.715 4.715 0 013.14 1.277 4.54 4.54 0 011.384 2.941c.117 1.352.207 7.739-.192 9.239A4.411 4.411 0 0113.11 17a42.635 42.635 0 01-4.739.191 29.6 29.6 0 01-4.781-.25zM4.512 1.68a2.957 2.957 0 00-2.75 2.59 57.129 57.129 0 00-.063 8.69 2.806 2.806 0 002.121 2.43c1.535.212 3.082.297 4.63.25 1.8 0 3.57-.062 4.241-.128a2.948 2.948 0 002.75-2.602c.23-2.812.266-5.633.11-8.45a2.901 2.901 0 00-2.582-2.741 40.472 40.472 0 00-4.297-.16c-1.711 0-3.41.043-4.16.12zm-.32 6.922a4.441 4.441 0 014.449-4.41c1.164 0 2.28.464 3.105 1.292a4.383 4.383 0 011.266 3.118 4.465 4.465 0 01-4.453 4.41 4.37 4.37 0 01-3.102-1.297 4.364 4.364 0 01-1.266-3.113zm1.546-.032a2.82 2.82 0 00.809 2.024 2.81 2.81 0 002.004.855h.02a2.88 2.88 0 002.878-2.82 2.81 2.81 0 00-.797-2.024 2.81 2.81 0 00-2.004-.855h-.027a2.886 2.886 0 00-2.883 2.82zm6.453-4.55c0-.274.106-.536.301-.727a1.02 1.02 0 01.727-.305h.011a1.017 1.017 0 011.02 1.043 1.035 1.035 0 01-1.766.719 1.021 1.021 0 01-.293-.73zm0 0"></path>
  </symbol>
  <symbol xmlns="http://www.w3.org/2000/svg" viewBox="0 0 15 11" id="team-arrow">
    <path d="M8.931 11.01a.673.673 0 00.425-.16l5.434-4.92c.007 0 .013-.01.019-.01l.031-.03v-.01a.567.567 0 00.138-.47.6.6 0 00-.155-.31l-.033-.03L9.355.16a.65.65 0 00-.874.02.578.578 0 00.024.84l4.311 3.89H.631a.608.608 0 00-.617.59.6.6 0 00.617.59h12.186l-4.311 3.9a.566.566 0 00-.024.83.608.608 0 00.449.19z"></path>
  </symbol>
  <symbol xmlns="http://www.w3.org/2000/svg" viewBox="0 0 15 15" id="grid">
    <path d="M0 3.75h3.75V0H0v3.75zM5.625 15h3.75v-3.75h-3.75V15zM0 15h3.75v-3.75H0V15zm0-5.625h3.75v-3.75H0v3.75zm5.625 0h3.75v-3.75h-3.75v3.75zM11.25 0v3.75H15V0h-3.75zM5.625 3.75h3.75V0h-3.75v3.75zm5.625 5.625H15v-3.75h-3.75v3.75zm0 5.625H15v-3.75h-3.75V15z"></path>
  </symbol>
  <symbol xmlns="http://www.w3.org/2000/svg" viewBox="-5 0 394 394" id="filter">
    <path d="M367.82 0H16.56A16.502 16.502 0 001.848 8.96a16.732 16.732 0 001.3 17.415L131.836 207.66c.043.063.09.121.133.184a36.751 36.751 0 017.219 21.816v147.8a16.448 16.448 0 004.773 11.688A16.45 16.45 0 00155.617 394a16.94 16.94 0 006.48-1.3l72.313-27.571c6.477-1.98 10.778-8.094 10.778-15.453V229.66a36.774 36.774 0 017.214-21.816c.043-.063.09-.121.133-.184L381.227 26.371a16.717 16.717 0 001.3-17.406A16.492 16.492 0 00367.82 0zm0 0"></path>
  </symbol>
  <symbol xmlns="http://www.w3.org/2000/svg" viewBox="0 0 20 15" id="list">
    <path d="M.007 0h4.422v4.172H.007V0zm5.828 0h14.159v4.172H5.835V0zM.007 5.413h4.422v4.172H.007V5.413zm5.828 0h14.159v4.172H5.835V5.413zM.007 10.827h4.422V15H.007v-4.171zm5.828 0h14.159V15H5.835v-4.171z"></path>
  </symbol>
  <symbol xmlns="http://www.w3.org/2000/svg" viewBox="0 0 17.03 17" id="search-blog">
    <path d="M16.44 17.014a.6.6 0 01-.42-.174l-5.3-5.3a6.515 6.515 0 11.84-.839l5.3 5.3a.6.6 0 010 .839.6.6 0 01-.42.174zM6.54 1.181a5.344 5.344 0 105.35 5.344 5.351 5.351 0 00-5.35-5.344z"></path>
  </symbol>
  <symbol xmlns="http://www.w3.org/2000/svg" viewBox="0 0 8.13 15.44" id="facebook">
    <path d="M6.1 0c.41 0 .83.03 1.24.05.27.01.54.04.79.07l-.02 2.49h-.2c-.27 0-.54-.01-.82-.01-.2 0-.4.01-.61.01A1.041 1.041 0 005.3 3.7c-.02.6-.03 1.9-.03 1.97.03 0 .68.01 1.34.01.32 0 .64 0 .87-.01h.53c-.13.96-.26 1.87-.39 2.8H5.27l-.06 6.97H2.32l.06-6.99H.01l.02-2.77h2.38v-.21c.01-.56 0-1.12.02-1.68a7.581 7.581 0 01.09-1.06A3.145 3.145 0 013.79.65 3.6 3.6 0 015.87.01c.08 0 .15-.01.23-.01z"></path>
  </symbol>
  <symbol xmlns="http://www.w3.org/2000/svg" viewBox="0 0 14.31 11.62" id="twitter">
    <path d="M14.31 1.4c-.11.16-.21.3-.33.45a5.7 5.7 0 01-1.07 1.01l-.05.09a8.22 8.22 0 01-.07 1.31 8.818 8.818 0 01-.77 2.61 8.712 8.712 0 01-1.6 2.3 7.864 7.864 0 01-4.05 2.25 8.967 8.967 0 01-1.64.2h-.26a8.172 8.172 0 01-4.42-1.27l-.07-.04a5.322 5.322 0 00.69.04 6.049 6.049 0 002.25-.44 5.834 5.834 0 001.4-.82 2.9 2.9 0 01-2.71-2.03 3.287 3.287 0 00.54.05 2.82 2.82 0 00.71-.09L2.91 7A2.9 2.9 0 01.59 4.1a2.914 2.914 0 001.31.35A2.914 2.914 0 01.7 2.67 2.877 2.877 0 011.04.55a8.311 8.311 0 006.02 3.07c-.02-.12-.03-.22-.05-.33a2.8 2.8 0 01.45-1.91A2.853 2.853 0 019.45.05a3.439 3.439 0 01.54-.04 2.833 2.833 0 012.03.86.139.139 0 00.1.05.09.09 0 00.05-.01 5.547 5.547 0 001.71-.65l.04-.02a2.919 2.919 0 01-1.25 1.6 5.859 5.859 0 001.64-.44z"></path>
  </symbol>
  <symbol xmlns="http://www.w3.org/2000/svg" viewBox="0 0 511.993 511.993" id="arrow-blog">
    <path d="M487.292 235.408H20.59c-11.372 0-20.59 9.224-20.59 20.59s9.217 20.59 20.59 20.59h466.702c11.372 0 20.59-9.217 20.59-20.59s-9.217-20.59-20.59-20.59z"></path>
    <path d="M505.96 241.434L304.187 39.653c-8.044-8.037-21.07-8.037-29.114 0-8.044 8.044-8.044 21.084 0 29.121l187.216 187.223-187.216 187.224c-8.044 8.037-8.044 21.077 0 29.114 4.022 4.022 9.286 6.033 14.557 6.033s10.535-2.011 14.557-6.033l201.773-201.78c8.044-8.044 8.044-21.085 0-29.121z"></path>
  </symbol>
  <symbol xmlns="http://www.w3.org/2000/svg" viewBox="0 0 512 512" id="user-blog">
    <path d="M333.187 237.405c32.761-23.893 54.095-62.561 54.095-106.123C387.282 58.893 328.389 0 256 0S124.718 58.893 124.718 131.282c0 43.562 21.333 82.23 54.095 106.123-81.44 31.165-139.428 110.126-139.428 202.39 0 39.814 32.391 72.205 72.205 72.205h288.82c39.814 0 72.205-32.391 72.205-72.205 0-92.264-57.988-171.225-139.428-202.39zM164.103 131.282c0-50.672 41.225-91.897 91.897-91.897s91.897 41.225 91.897 91.897S306.672 223.18 256 223.18s-91.897-41.226-91.897-91.898zM400.41 472.615H111.59c-18.097 0-32.82-14.723-32.82-32.821 0-97.726 79.504-177.231 177.231-177.231s177.231 79.504 177.231 177.231c-.001 18.098-14.724 32.821-32.822 32.821z"></path>
  </symbol>
  <symbol xmlns="http://www.w3.org/2000/svg" viewBox="0 0 74 74" id="email">
    <path d="M67.751 60.354H6.249A4.254 4.254 0 012 56.105V16.756a4.253 4.253 0 014.249-4.248h61.5A4.253 4.253 0 0172 16.756v39.349a4.254 4.254 0 01-4.249 4.249zM6.249 14.508A2.251 2.251 0 004 16.756v39.349a2.252 2.252 0 002.249 2.249h61.5A2.252 2.252 0 0070 56.105V16.756a2.251 2.251 0 00-2.249-2.248z"></path>
    <path d="M37 39.132a4.6 4.6 0 01-2.769-.92L3.53 15.1a1 1 0 011.2-1.6l30.7 23.113a2.616 2.616 0 003.132 0L69.267 13.5a1 1 0 011.2 1.6l-30.7 23.113a4.6 4.6 0 01-2.767.919z"></path>
    <path d="M3.684 59.093a1 1 0 01-.647-1.763l27.58-23.367a1 1 0 111.293 1.526L4.33 58.856a.993.993 0 01-.646.237zm66.632 0a.993.993 0 01-.646-.237L42.09 35.489a1 1 0 111.293-1.526l27.58 23.367a1 1 0 01-.647 1.763z"></path>
  </symbol>
  <symbol xmlns="http://www.w3.org/2000/svg" viewBox="0 0 60 60" id="comment">
    <path d="M54 2H6C2.748 2 0 4.748 0 8v33c0 3.252 2.748 6 6 6h8v10a1 1 0 001.74.673L25.442 47H54c3.252 0 6-2.748 6-6V8c0-3.252-2.748-6-6-6zm4 39c0 2.168-1.832 4-4 4H27.179l3.579-4.161a1 1 0 10-1.517-1.304l-4.998 5.811L16 54.414V46a1 1 0 00-1-1H6c-2.168 0-4-1.832-4-4V8c0-2.168 1.832-4 4-4h48c2.168 0 4 1.832 4 4v33z"></path>
  </symbol>
</svg>